<svg xmlns="http://www.w3.org/2000/svg" xmlns:xlink="http://www.w3.org/1999/xlink" width="1450" zoomAndPan="magnify" viewBox="0 0 1087.5 809.999993" height="1080" preserveAspectRatio="xMidYMid meet" version="1.0"><defs><g/><clipPath id="e7206469ae"><rect x="0" width="956" y="0" height="705"/></clipPath></defs><g transform="matrix(1, 0, 0, 1, 47, 51)"><g clip-path="url(#e7206469ae)"><g fill="#ffffff" fill-opacity="1"><g transform="translate(0.65468, 233.757495)"><g><path d="M 86.9375 -171.203125 L 104.90625 -171.203125 L 182.375 0 L 161.734375 0 L 141.828125 -44.921875 L 49.296875 -44.921875 L 29.140625 0 L 9.46875 0 Z M 134.296875 -62.171875 L 95.6875 -148.859375 L 56.828125 -62.171875 Z M 134.296875 -62.171875 "/></g></g></g><g fill="#ffffff" fill-opacity="1"><g transform="translate(180.81727, 233.757495)"><g><path d="M 102.96875 2.921875 C 89.53125 2.921875 77.507812 0.65625 66.90625 -3.875 C 56.300781 -8.414062 47.234375 -14.648438 39.703125 -22.578125 C 32.171875 -30.515625 26.421875 -39.785156 22.453125 -50.390625 C 18.492188 -60.992188 16.515625 -72.367188 16.515625 -84.515625 L 16.515625 -85 C 16.515625 -96.65625 18.578125 -107.785156 22.703125 -118.390625 C 26.828125 -128.992188 32.613281 -138.34375 40.0625 -146.4375 C 47.507812 -154.53125 56.453125 -160.960938 66.890625 -165.734375 C 77.335938 -170.515625 88.957031 -172.90625 101.75 -172.90625 C 108.875 -172.90625 115.390625 -172.414062 121.296875 -171.4375 C 127.210938 -170.46875 132.71875 -169.007812 137.8125 -167.0625 C 142.914062 -165.125 147.691406 -162.738281 152.140625 -159.90625 C 156.585938 -157.070312 160.921875 -153.878906 165.140625 -150.328125 L 152.75 -135.75 C 149.507812 -138.664062 146.109375 -141.296875 142.546875 -143.640625 C 138.984375 -145.984375 135.140625 -148.003906 131.015625 -149.703125 C 126.890625 -151.410156 122.359375 -152.75 117.421875 -153.71875 C 112.484375 -154.6875 107.015625 -155.171875 101.015625 -155.171875 C 91.628906 -155.171875 82.96875 -153.304688 75.03125 -149.578125 C 67.101562 -145.859375 60.304688 -140.84375 54.640625 -134.53125 C 48.972656 -128.21875 44.519531 -120.8125 41.28125 -112.3125 C 38.039062 -103.8125 36.421875 -94.867188 36.421875 -85.484375 L 36.421875 -85 C 36.421875 -74.800781 38 -65.410156 41.15625 -56.828125 C 44.3125 -48.242188 48.800781 -40.796875 54.625 -34.484375 C 60.457031 -28.171875 67.503906 -23.234375 75.765625 -19.671875 C 84.023438 -16.109375 93.332031 -14.328125 103.6875 -14.328125 C 113.40625 -14.328125 122.550781 -15.984375 131.125 -19.296875 C 139.707031 -22.617188 146.914062 -26.628906 152.75 -31.328125 L 152.75 -73.578125 L 101.015625 -73.578125 L 101.015625 -90.828125 L 171.203125 -90.828125 L 171.203125 -23.0625 C 163.273438 -15.945312 153.519531 -9.835938 141.9375 -4.734375 C 130.363281 0.367188 117.375 2.921875 102.96875 2.921875 Z M 102.96875 2.921875 "/></g></g></g><g fill="#ffffff" fill-opacity="1"><g transform="translate(359.522989, 233.757495)"><g><path d="M 25.734375 -169.984375 L 44.921875 -169.984375 L 44.921875 0 L 25.734375 0 Z M 25.734375 -169.984375 "/></g></g></g><g fill="#ffffff" fill-opacity="1"><g transform="translate(0.65468, 439.533342)"><g><path d="M 8.5 -125.546875 L 29.140625 -125.546875 L 71.390625 -21.375 L 113.890625 -125.546875 L 134.046875 -125.546875 L 79.40625 0.96875 L 62.890625 0.96875 Z M 8.5 -125.546875 "/></g></g></g><g fill="#ffffff" fill-opacity="1"><g transform="translate(131.526931, 439.533342)"><g><path d="M 75.765625 2.921875 C 67.179688 2.921875 59.082031 1.34375 51.46875 -1.8125 C 43.863281 -4.976562 37.226562 -9.429688 31.5625 -15.171875 C 25.894531 -20.921875 21.398438 -27.800781 18.078125 -35.8125 C 14.765625 -43.832031 13.109375 -52.695312 13.109375 -62.40625 L 13.109375 -62.890625 C 13.109375 -71.960938 14.601562 -80.460938 17.59375 -88.390625 C 20.59375 -96.328125 24.765625 -103.25 30.109375 -109.15625 C 35.453125 -115.0625 41.804688 -119.710938 49.171875 -123.109375 C 56.535156 -126.515625 64.59375 -128.21875 73.34375 -128.21875 C 82.570312 -128.21875 90.828125 -126.476562 98.109375 -123 C 105.390625 -119.519531 111.539062 -114.785156 116.5625 -108.796875 C 121.582031 -102.804688 125.382812 -95.800781 127.96875 -87.78125 C 130.5625 -79.769531 131.859375 -71.148438 131.859375 -61.921875 C 131.859375 -60.628906 131.859375 -59.578125 131.859375 -58.765625 C 131.859375 -57.953125 131.78125 -56.984375 131.625 -55.859375 L 32.0625 -55.859375 C 32.707031 -49.054688 34.320312 -43.023438 36.90625 -37.765625 C 39.5 -32.503906 42.78125 -28.050781 46.75 -24.40625 C 50.71875 -20.757812 55.207031 -18.003906 60.21875 -16.140625 C 65.238281 -14.285156 70.582031 -13.359375 76.25 -13.359375 C 84.988281 -13.359375 92.472656 -14.972656 98.703125 -18.203125 C 104.941406 -21.441406 110.65625 -25.734375 115.84375 -31.078125 L 127.5 -20.640625 C 121.175781 -13.515625 113.96875 -7.804688 105.875 -3.515625 C 97.78125 0.773438 87.742188 2.921875 75.765625 2.921875 Z M 112.921875 -69.703125 C 112.429688 -75.367188 111.253906 -80.789062 109.390625 -85.96875 C 107.535156 -91.144531 104.945312 -95.675781 101.625 -99.5625 C 98.3125 -103.445312 94.265625 -106.5625 89.484375 -108.90625 C 84.710938 -111.257812 79.171875 -112.4375 72.859375 -112.4375 C 67.347656 -112.4375 62.242188 -111.34375 57.546875 -109.15625 C 52.859375 -106.96875 48.734375 -103.972656 45.171875 -100.171875 C 41.609375 -96.367188 38.691406 -91.875 36.421875 -86.6875 C 34.160156 -81.507812 32.707031 -75.847656 32.0625 -69.703125 Z M 112.921875 -69.703125 "/></g></g></g><g fill="#ffffff" fill-opacity="1"><g transform="translate(263.613222, 439.533342)"><g><path d="M 20.890625 -125.546875 L 39.578125 -125.546875 L 39.578125 -103.6875 C 43.785156 -110.488281 49.289062 -116.273438 56.09375 -121.046875 C 62.894531 -125.828125 71.71875 -128.21875 82.5625 -128.21875 C 90.175781 -128.21875 96.9375 -127.003906 102.84375 -124.578125 C 108.75 -122.148438 113.765625 -118.707031 117.890625 -114.25 C 122.023438 -109.800781 125.1875 -104.5 127.375 -98.34375 C 129.5625 -92.195312 130.65625 -85.398438 130.65625 -77.953125 L 130.65625 0 L 111.953125 0 L 111.953125 -73.34375 C 111.953125 -85 108.957031 -94.222656 102.96875 -101.015625 C 96.976562 -107.816406 88.394531 -111.21875 77.21875 -111.21875 C 71.875 -111.21875 66.894531 -110.285156 62.28125 -108.421875 C 57.675781 -106.566406 53.671875 -103.894531 50.265625 -100.40625 C 46.867188 -96.925781 44.238281 -92.757812 42.375 -87.90625 C 40.507812 -83.050781 39.578125 -77.707031 39.578125 -71.875 L 39.578125 0 L 20.890625 0 Z M 20.890625 -125.546875 "/></g></g></g><g fill="#ffffff" fill-opacity="1"><g transform="translate(401.526961, 439.533342)"><g><path d="M 62.890625 2.1875 C 57.878906 2.1875 53.1875 1.535156 48.8125 0.234375 C 44.4375 -1.054688 40.671875 -3.117188 37.515625 -5.953125 C 34.359375 -8.785156 31.890625 -12.46875 30.109375 -17 C 28.328125 -21.53125 27.4375 -26.953125 27.4375 -33.265625 L 27.4375 -109.03125 L 9.953125 -109.03125 L 9.953125 -125.546875 L 27.4375 -125.546875 L 27.4375 -163.4375 L 46.140625 -163.4375 L 46.140625 -125.546875 L 85.96875 -125.546875 L 85.96875 -109.03125 L 46.140625 -109.03125 L 46.140625 -35.703125 C 46.140625 -27.929688 48.082031 -22.503906 51.96875 -19.421875 C 55.851562 -16.347656 60.953125 -14.8125 67.265625 -14.8125 C 70.503906 -14.8125 73.539062 -15.132812 76.375 -15.78125 C 79.207031 -16.425781 82.242188 -17.5625 85.484375 -19.1875 L 85.484375 -3.15625 C 82.242188 -1.375 78.800781 -0.0390625 75.15625 0.84375 C 71.519531 1.738281 67.429688 2.1875 62.890625 2.1875 Z M 62.890625 2.1875 "/></g></g></g><g fill="#ffffff" fill-opacity="1"><g transform="translate(487.965074, 439.533342)"><g><path d="M 67.03125 2.671875 C 59.414062 2.671875 52.65625 1.457031 46.75 -0.96875 C 40.84375 -3.394531 35.820312 -6.832031 31.6875 -11.28125 C 27.5625 -15.738281 24.40625 -21.039062 22.21875 -27.1875 C 20.03125 -33.34375 18.9375 -40.144531 18.9375 -47.59375 L 18.9375 -125.546875 L 37.640625 -125.546875 L 37.640625 -52.21875 C 37.640625 -40.5625 40.632812 -31.332031 46.625 -24.53125 C 52.613281 -17.726562 61.195312 -14.328125 72.375 -14.328125 C 77.707031 -14.328125 82.679688 -15.253906 87.296875 -17.109375 C 91.910156 -18.972656 95.878906 -21.644531 99.203125 -25.125 C 102.523438 -28.613281 105.15625 -32.785156 107.09375 -37.640625 C 109.039062 -42.492188 110.015625 -47.835938 110.015625 -53.671875 L 110.015625 -125.546875 L 128.46875 -125.546875 L 128.46875 0 L 110.015625 0 L 110.015625 -21.859375 C 105.796875 -15.054688 100.285156 -9.265625 93.484375 -4.484375 C 86.691406 0.285156 77.875 2.671875 67.03125 2.671875 Z M 67.03125 2.671875 "/></g></g></g><g fill="#ffffff" fill-opacity="1"><g transform="translate(625.878814, 439.533342)"><g><path d="M 20.890625 -125.546875 L 39.578125 -125.546875 L 39.578125 -92.765625 C 41.847656 -97.941406 44.679688 -102.71875 48.078125 -107.09375 C 51.484375 -111.46875 55.367188 -115.234375 59.734375 -118.390625 C 64.109375 -121.546875 68.882812 -123.929688 74.0625 -125.546875 C 79.25 -127.171875 84.835938 -127.898438 90.828125 -127.734375 L 90.828125 -107.578125 L 89.359375 -107.578125 C 82.566406 -107.578125 76.132812 -106.363281 70.0625 -103.9375 C 63.988281 -101.507812 58.6875 -97.863281 54.15625 -93 C 49.625 -88.144531 46.0625 -82.113281 43.46875 -74.90625 C 40.875 -67.707031 39.578125 -59.414062 39.578125 -50.03125 L 39.578125 0 L 20.890625 0 Z M 20.890625 -125.546875 "/></g></g></g><g fill="#ffffff" fill-opacity="1"><g transform="translate(712.55972, 439.533342)"><g><path d="M 75.765625 2.921875 C 67.179688 2.921875 59.082031 1.34375 51.46875 -1.8125 C 43.863281 -4.976562 37.226562 -9.429688 31.5625 -15.171875 C 25.894531 -20.921875 21.398438 -27.800781 18.078125 -35.8125 C 14.765625 -43.832031 13.109375 -52.695312 13.109375 -62.40625 L 13.109375 -62.890625 C 13.109375 -71.960938 14.601562 -80.460938 17.59375 -88.390625 C 20.59375 -96.328125 24.765625 -103.25 30.109375 -109.15625 C 35.453125 -115.0625 41.804688 -119.710938 49.171875 -123.109375 C 56.535156 -126.515625 64.59375 -128.21875 73.34375 -128.21875 C 82.570312 -128.21875 90.828125 -126.476562 98.109375 -123 C 105.390625 -119.519531 111.539062 -114.785156 116.5625 -108.796875 C 121.582031 -102.804688 125.382812 -95.800781 127.96875 -87.78125 C 130.5625 -79.769531 131.859375 -71.148438 131.859375 -61.921875 C 131.859375 -60.628906 131.859375 -59.578125 131.859375 -58.765625 C 131.859375 -57.953125 131.78125 -56.984375 131.625 -55.859375 L 32.0625 -55.859375 C 32.707031 -49.054688 34.320312 -43.023438 36.90625 -37.765625 C 39.5 -32.503906 42.78125 -28.050781 46.75 -24.40625 C 50.71875 -20.757812 55.207031 -18.003906 60.21875 -16.140625 C 65.238281 -14.285156 70.582031 -13.359375 76.25 -13.359375 C 84.988281 -13.359375 92.472656 -14.972656 98.703125 -18.203125 C 104.941406 -21.441406 110.65625 -25.734375 115.84375 -31.078125 L 127.5 -20.640625 C 121.175781 -13.515625 113.96875 -7.804688 105.875 -3.515625 C 97.78125 0.773438 87.742188 2.921875 75.765625 2.921875 Z M 112.921875 -69.703125 C 112.429688 -75.367188 111.253906 -80.789062 109.390625 -85.96875 C 107.535156 -91.144531 104.945312 -95.675781 101.625 -99.5625 C 98.3125 -103.445312 94.265625 -106.5625 89.484375 -108.90625 C 84.710938 -111.257812 79.171875 -112.4375 72.859375 -112.4375 C 67.347656 -112.4375 62.242188 -111.34375 57.546875 -109.15625 C 52.859375 -106.96875 48.734375 -103.972656 45.171875 -100.171875 C 41.609375 -96.367188 38.691406 -91.875 36.421875 -86.6875 C 34.160156 -81.507812 32.707031 -75.847656 32.0625 -69.703125 Z M 112.921875 -69.703125 "/></g></g></g><g fill="#ffffff" fill-opacity="1"><g transform="translate(844.645974, 439.533342)"><g><path d="M 62.40625 2.421875 C 53.34375 2.421875 44.195312 0.765625 34.96875 -2.546875 C 25.738281 -5.867188 17.5625 -10.363281 10.4375 -16.03125 L 19.90625 -29.390625 C 26.707031 -24.203125 33.789062 -20.234375 41.15625 -17.484375 C 48.53125 -14.734375 55.9375 -13.359375 63.375 -13.359375 C 70.988281 -13.359375 77.222656 -15.140625 82.078125 -18.703125 C 86.929688 -22.265625 89.359375 -27.117188 89.359375 -33.265625 L 89.359375 -33.75 C 89.359375 -36.832031 88.507812 -39.503906 86.8125 -41.765625 C 85.113281 -44.035156 82.804688 -46.019531 79.890625 -47.71875 C 76.984375 -49.414062 73.625 -50.910156 69.8125 -52.203125 C 66.007812 -53.503906 62.085938 -54.722656 58.046875 -55.859375 C 53.179688 -57.316406 48.28125 -58.894531 43.34375 -60.59375 C 38.40625 -62.289062 33.953125 -64.429688 29.984375 -67.015625 C 26.023438 -69.609375 22.789062 -72.847656 20.28125 -76.734375 C 17.769531 -80.617188 16.515625 -85.476562 16.515625 -91.3125 L 16.515625 -91.796875 C 16.515625 -97.140625 17.566406 -102.035156 19.671875 -106.484375 C 21.773438 -110.941406 24.726562 -114.75 28.53125 -117.90625 C 32.332031 -121.0625 36.863281 -123.488281 42.125 -125.1875 C 47.394531 -126.882812 53.101562 -127.734375 59.25 -127.734375 C 67.019531 -127.734375 74.867188 -126.476562 82.796875 -123.96875 C 90.734375 -121.457031 97.941406 -118.097656 104.421875 -113.890625 L 95.921875 -99.8125 C 90.097656 -103.53125 83.988281 -106.484375 77.59375 -108.671875 C 71.195312 -110.859375 64.921875 -111.953125 58.765625 -111.953125 C 51.316406 -111.953125 45.40625 -110.210938 41.03125 -106.734375 C 36.664062 -103.253906 34.484375 -98.921875 34.484375 -93.734375 L 34.484375 -93.25 C 34.484375 -90.332031 35.375 -87.78125 37.15625 -85.59375 C 38.9375 -83.414062 41.320312 -81.515625 44.3125 -79.890625 C 47.3125 -78.273438 50.753906 -76.816406 54.640625 -75.515625 C 58.523438 -74.222656 62.570312 -72.929688 66.78125 -71.640625 C 71.632812 -70.179688 76.445312 -68.5625 81.21875 -66.78125 C 86 -65 90.332031 -62.734375 94.21875 -59.984375 C 98.101562 -57.234375 101.21875 -53.914062 103.5625 -50.03125 C 105.914062 -46.144531 107.09375 -41.367188 107.09375 -35.703125 L 107.09375 -35.21875 C 107.09375 -29.226562 105.914062 -23.925781 103.5625 -19.3125 C 101.21875 -14.695312 98.0625 -10.769531 94.09375 -7.53125 C 90.132812 -4.289062 85.441406 -1.820312 80.015625 -0.125 C 74.585938 1.570312 68.71875 2.421875 62.40625 2.421875 Z M 62.40625 2.421875 "/></g></g></g><g fill="#ff3131" fill-opacity="1"><g transform="translate(0.65468, 645.309189)"><g><path d="M 77.46875 2.921875 C 68.238281 2.921875 59.695312 1.179688 51.84375 -2.296875 C 43.988281 -5.785156 37.1875 -10.484375 31.4375 -16.390625 C 25.695312 -22.296875 21.207031 -29.210938 17.96875 -37.140625 C 14.726562 -45.078125 13.109375 -53.421875 13.109375 -62.171875 L 13.109375 -62.65625 C 13.109375 -71.5625 14.726562 -79.976562 17.96875 -87.90625 C 21.207031 -95.84375 25.695312 -102.804688 31.4375 -108.796875 C 37.1875 -114.785156 43.988281 -119.519531 51.84375 -123 C 59.695312 -126.476562 68.238281 -128.21875 77.46875 -128.21875 C 83.457031 -128.21875 88.878906 -127.648438 93.734375 -126.515625 C 98.585938 -125.390625 103.039062 -123.8125 107.09375 -121.78125 C 111.144531 -119.757812 114.867188 -117.375 118.265625 -114.625 C 121.660156 -111.875 124.816406 -108.957031 127.734375 -105.875 L 115.34375 -92.765625 C 110.332031 -97.941406 104.867188 -102.390625 98.953125 -106.109375 C 93.046875 -109.835938 85.800781 -111.703125 77.21875 -111.703125 C 70.90625 -111.703125 64.992188 -110.445312 59.484375 -107.9375 C 53.984375 -105.4375 49.207031 -102 45.15625 -97.625 C 41.113281 -93.25 37.957031 -88.109375 35.6875 -82.203125 C 33.425781 -76.296875 32.296875 -69.941406 32.296875 -63.140625 L 32.296875 -62.65625 C 32.296875 -55.851562 33.46875 -49.5 35.8125 -43.59375 C 38.164062 -37.6875 41.40625 -32.503906 45.53125 -28.046875 C 49.65625 -23.597656 54.507812 -20.117188 60.09375 -17.609375 C 65.6875 -15.097656 71.800781 -13.84375 78.4375 -13.84375 C 86.53125 -13.84375 93.691406 -15.625 99.921875 -19.1875 C 106.160156 -22.75 111.789062 -27.203125 116.8125 -32.546875 L 128.703125 -21.375 C 122.390625 -14.25 115.222656 -8.414062 107.203125 -3.875 C 99.191406 0.65625 89.28125 2.921875 77.46875 2.921875 Z M 77.46875 2.921875 "/></g></g></g><g fill="#ff3131" fill-opacity="1"><g transform="translate(127.641979, 645.309189)"><g><path d="M 58.28125 2.671875 C 52.457031 2.671875 46.75 1.859375 41.15625 0.234375 C 35.570312 -1.378906 30.550781 -3.84375 26.09375 -7.15625 C 21.644531 -10.476562 18.082031 -14.566406 15.40625 -19.421875 C 12.738281 -24.285156 11.40625 -29.953125 11.40625 -36.421875 L 11.40625 -36.90625 C 11.40625 -43.550781 12.703125 -49.378906 15.296875 -54.390625 C 17.890625 -59.410156 21.570312 -63.617188 26.34375 -67.015625 C 31.125 -70.421875 36.789062 -73.015625 43.34375 -74.796875 C 49.90625 -76.578125 57.148438 -77.46875 65.078125 -77.46875 C 73.171875 -77.46875 80.210938 -76.976562 86.203125 -76 C 92.191406 -75.03125 98.019531 -73.738281 103.6875 -72.125 L 103.6875 -76.5 C 103.6875 -87.832031 100.410156 -96.367188 93.859375 -102.109375 C 87.304688 -107.859375 78.117188 -110.734375 66.296875 -110.734375 C 58.847656 -110.734375 52.085938 -109.882812 46.015625 -108.1875 C 39.941406 -106.488281 33.992188 -104.265625 28.171875 -101.515625 L 22.578125 -116.8125 C 29.546875 -120.050781 36.585938 -122.597656 43.703125 -124.453125 C 50.828125 -126.316406 59.003906 -127.25 68.234375 -127.25 C 86.046875 -127.25 99.566406 -122.632812 108.796875 -113.40625 C 117.378906 -104.820312 121.671875 -92.597656 121.671875 -76.734375 L 121.671875 0 L 103.6875 0 L 103.6875 -18.9375 C 99.320312 -13.269531 93.453125 -8.25 86.078125 -3.875 C 78.710938 0.488281 69.445312 2.671875 58.28125 2.671875 Z M 61.921875 -12.140625 C 67.753906 -12.140625 73.21875 -12.988281 78.3125 -14.6875 C 83.414062 -16.382812 87.867188 -18.734375 91.671875 -21.734375 C 95.472656 -24.734375 98.46875 -28.296875 100.65625 -32.421875 C 102.84375 -36.546875 103.9375 -41.117188 103.9375 -46.140625 L 103.9375 -58.28125 C 99.238281 -59.570312 93.851562 -60.785156 87.78125 -61.921875 C 81.71875 -63.054688 74.800781 -63.625 67.03125 -63.625 C 55.207031 -63.625 46.140625 -61.273438 39.828125 -56.578125 C 33.515625 -51.890625 30.359375 -45.578125 30.359375 -37.640625 L 30.359375 -37.15625 C 30.359375 -33.269531 31.207031 -29.75 32.90625 -26.59375 C 34.601562 -23.4375 36.910156 -20.804688 39.828125 -18.703125 C 42.742188 -16.597656 46.101562 -14.976562 49.90625 -13.84375 C 53.707031 -12.707031 57.710938 -12.140625 61.921875 -12.140625 Z M 61.921875 -12.140625 "/></g></g></g><g fill="#ff3131" fill-opacity="1"><g transform="translate(256.571736, 645.309189)"><g><path d="M 20.890625 -125.546875 L 39.578125 -125.546875 L 39.578125 -103.6875 C 43.785156 -110.488281 49.289062 -116.273438 56.09375 -121.046875 C 62.894531 -125.828125 71.71875 -128.21875 82.5625 -128.21875 C 90.175781 -128.21875 96.9375 -127.003906 102.84375 -124.578125 C 108.75 -122.148438 113.765625 -118.707031 117.890625 -114.25 C 122.023438 -109.800781 125.1875 -104.5 127.375 -98.34375 C 129.5625 -92.195312 130.65625 -85.398438 130.65625 -77.953125 L 130.65625 0 L 111.953125 0 L 111.953125 -73.34375 C 111.953125 -85 108.957031 -94.222656 102.96875 -101.015625 C 96.976562 -107.816406 88.394531 -111.21875 77.21875 -111.21875 C 71.875 -111.21875 66.894531 -110.285156 62.28125 -108.421875 C 57.675781 -106.566406 53.671875 -103.894531 50.265625 -100.40625 C 46.867188 -96.925781 44.238281 -92.757812 42.375 -87.90625 C 40.507812 -83.050781 39.578125 -77.707031 39.578125 -71.875 L 39.578125 0 L 20.890625 0 Z M 20.890625 -125.546875 "/></g></g></g><g fill="#ff3131" fill-opacity="1"><g transform="translate(394.485475, 645.309189)"><g><path d="M 58.28125 2.671875 C 52.457031 2.671875 46.75 1.859375 41.15625 0.234375 C 35.570312 -1.378906 30.550781 -3.84375 26.09375 -7.15625 C 21.644531 -10.476562 18.082031 -14.566406 15.40625 -19.421875 C 12.738281 -24.285156 11.40625 -29.953125 11.40625 -36.421875 L 11.40625 -36.90625 C 11.40625 -43.550781 12.703125 -49.378906 15.296875 -54.390625 C 17.890625 -59.410156 21.570312 -63.617188 26.34375 -67.015625 C 31.125 -70.421875 36.789062 -73.015625 43.34375 -74.796875 C 49.90625 -76.578125 57.148438 -77.46875 65.078125 -77.46875 C 73.171875 -77.46875 80.210938 -76.976562 86.203125 -76 C 92.191406 -75.03125 98.019531 -73.738281 103.6875 -72.125 L 103.6875 -76.5 C 103.6875 -87.832031 100.410156 -96.367188 93.859375 -102.109375 C 87.304688 -107.859375 78.117188 -110.734375 66.296875 -110.734375 C 58.847656 -110.734375 52.085938 -109.882812 46.015625 -108.1875 C 39.941406 -106.488281 33.992188 -104.265625 28.171875 -101.515625 L 22.578125 -116.8125 C 29.546875 -120.050781 36.585938 -122.597656 43.703125 -124.453125 C 50.828125 -126.316406 59.003906 -127.25 68.234375 -127.25 C 86.046875 -127.25 99.566406 -122.632812 108.796875 -113.40625 C 117.378906 -104.820312 121.671875 -92.597656 121.671875 -76.734375 L 121.671875 0 L 103.6875 0 L 103.6875 -18.9375 C 99.320312 -13.269531 93.453125 -8.25 86.078125 -3.875 C 78.710938 0.488281 69.445312 2.671875 58.28125 2.671875 Z M 61.921875 -12.140625 C 67.753906 -12.140625 73.21875 -12.988281 78.3125 -14.6875 C 83.414062 -16.382812 87.867188 -18.734375 91.671875 -21.734375 C 95.472656 -24.734375 98.46875 -28.296875 100.65625 -32.421875 C 102.84375 -36.546875 103.9375 -41.117188 103.9375 -46.140625 L 103.9375 -58.28125 C 99.238281 -59.570312 93.851562 -60.785156 87.78125 -61.921875 C 81.71875 -63.054688 74.800781 -63.625 67.03125 -63.625 C 55.207031 -63.625 46.140625 -61.273438 39.828125 -56.578125 C 33.515625 -51.890625 30.359375 -45.578125 30.359375 -37.640625 L 30.359375 -37.15625 C 30.359375 -33.269531 31.207031 -29.75 32.90625 -26.59375 C 34.601562 -23.4375 36.910156 -20.804688 39.828125 -18.703125 C 42.742188 -16.597656 46.101562 -14.976562 49.90625 -13.84375 C 53.707031 -12.707031 57.710938 -12.140625 61.921875 -12.140625 Z M 61.921875 -12.140625 "/></g></g></g><g fill="#ff3131" fill-opacity="1"><g transform="translate(523.415232, 645.309189)"><g><path d="M 73.578125 2.671875 C 65.972656 2.671875 58.609375 1.210938 51.484375 -1.703125 C 44.359375 -4.617188 37.960938 -8.867188 32.296875 -14.453125 C 26.628906 -20.035156 22.09375 -26.832031 18.6875 -34.84375 C 15.289062 -42.863281 13.59375 -52.050781 13.59375 -62.40625 L 13.59375 -62.890625 C 13.59375 -73.097656 15.289062 -82.25 18.6875 -90.34375 C 22.09375 -98.4375 26.628906 -105.273438 32.296875 -110.859375 C 37.960938 -116.441406 44.359375 -120.726562 51.484375 -123.71875 C 58.609375 -126.71875 65.972656 -128.21875 73.578125 -128.21875 C 79.410156 -128.21875 84.753906 -127.488281 89.609375 -126.03125 C 94.460938 -124.570312 98.832031 -122.628906 102.71875 -120.203125 C 106.601562 -117.773438 110.125 -114.941406 113.28125 -111.703125 C 116.4375 -108.460938 119.234375 -105.066406 121.671875 -101.515625 L 121.671875 -177.28125 L 140.359375 -177.28125 L 140.359375 0 L 121.671875 0 L 121.671875 -25.25 C 119.078125 -21.53125 116.203125 -17.96875 113.046875 -14.5625 C 109.890625 -11.164062 106.367188 -8.171875 102.484375 -5.578125 C 98.597656 -2.992188 94.265625 -0.972656 89.484375 0.484375 C 84.710938 1.941406 79.410156 2.671875 73.578125 2.671875 Z M 76.984375 -14.078125 C 82.804688 -14.078125 88.429688 -15.25 93.859375 -17.59375 C 99.285156 -19.945312 104.140625 -23.269531 108.421875 -27.5625 C 112.710938 -31.851562 116.113281 -36.953125 118.625 -42.859375 C 121.132812 -48.765625 122.390625 -55.363281 122.390625 -62.65625 L 122.390625 -63.140625 C 122.390625 -70.421875 121.132812 -77.015625 118.625 -82.921875 C 116.113281 -88.835938 112.710938 -93.898438 108.421875 -98.109375 C 104.140625 -102.316406 99.285156 -105.59375 93.859375 -107.9375 C 88.429688 -110.289062 82.804688 -111.46875 76.984375 -111.46875 C 70.828125 -111.46875 65.078125 -110.375 59.734375 -108.1875 C 54.390625 -106 49.734375 -102.84375 45.765625 -98.71875 C 41.804688 -94.59375 38.648438 -89.53125 36.296875 -83.53125 C 33.953125 -77.539062 32.78125 -70.742188 32.78125 -63.140625 L 32.78125 -62.65625 C 32.78125 -55.207031 33.953125 -48.488281 36.296875 -42.5 C 38.648438 -36.507812 41.847656 -31.410156 45.890625 -27.203125 C 49.941406 -22.992188 54.640625 -19.753906 59.984375 -17.484375 C 65.328125 -15.210938 70.992188 -14.078125 76.984375 -14.078125 Z M 76.984375 -14.078125 "/></g></g></g><g fill="#ff3131" fill-opacity="1"><g transform="translate(672.983865, 645.309189)"><g><path d="M 58.28125 2.671875 C 52.457031 2.671875 46.75 1.859375 41.15625 0.234375 C 35.570312 -1.378906 30.550781 -3.84375 26.09375 -7.15625 C 21.644531 -10.476562 18.082031 -14.566406 15.40625 -19.421875 C 12.738281 -24.285156 11.40625 -29.953125 11.40625 -36.421875 L 11.40625 -36.90625 C 11.40625 -43.550781 12.703125 -49.378906 15.296875 -54.390625 C 17.890625 -59.410156 21.570312 -63.617188 26.34375 -67.015625 C 31.125 -70.421875 36.789062 -73.015625 43.34375 -74.796875 C 49.90625 -76.578125 57.148438 -77.46875 65.078125 -77.46875 C 73.171875 -77.46875 80.210938 -76.976562 86.203125 -76 C 92.191406 -75.03125 98.019531 -73.738281 103.6875 -72.125 L 103.6875 -76.5 C 103.6875 -87.832031 100.410156 -96.367188 93.859375 -102.109375 C 87.304688 -107.859375 78.117188 -110.734375 66.296875 -110.734375 C 58.847656 -110.734375 52.085938 -109.882812 46.015625 -108.1875 C 39.941406 -106.488281 33.992188 -104.265625 28.171875 -101.515625 L 22.578125 -116.8125 C 29.546875 -120.050781 36.585938 -122.597656 43.703125 -124.453125 C 50.828125 -126.316406 59.003906 -127.25 68.234375 -127.25 C 86.046875 -127.25 99.566406 -122.632812 108.796875 -113.40625 C 117.378906 -104.820312 121.671875 -92.597656 121.671875 -76.734375 L 121.671875 0 L 103.6875 0 L 103.6875 -18.9375 C 99.320312 -13.269531 93.453125 -8.25 86.078125 -3.875 C 78.710938 0.488281 69.445312 2.671875 58.28125 2.671875 Z M 61.921875 -12.140625 C 67.753906 -12.140625 73.21875 -12.988281 78.3125 -14.6875 C 83.414062 -16.382812 87.867188 -18.734375 91.671875 -21.734375 C 95.472656 -24.734375 98.46875 -28.296875 100.65625 -32.421875 C 102.84375 -36.546875 103.9375 -41.117188 103.9375 -46.140625 L 103.9375 -58.28125 C 99.238281 -59.570312 93.851562 -60.785156 87.78125 -61.921875 C 81.71875 -63.054688 74.800781 -63.625 67.03125 -63.625 C 55.207031 -63.625 46.140625 -61.273438 39.828125 -56.578125 C 33.515625 -51.890625 30.359375 -45.578125 30.359375 -37.640625 L 30.359375 -37.15625 C 30.359375 -33.269531 31.207031 -29.75 32.90625 -26.59375 C 34.601562 -23.4375 36.910156 -20.804688 39.828125 -18.703125 C 42.742188 -16.597656 46.101562 -14.976562 49.90625 -13.84375 C 53.707031 -12.707031 57.710938 -12.140625 61.921875 -12.140625 Z M 61.921875 -12.140625 "/></g></g></g></g></g></svg>